<svg xmlns="http://www.w3.org/2000/svg" viewBox="0 0 760 760"><defs>
<radialGradient id="porc" cx=".34" cy=".2"><stop stop-color="#fffdf8"/><stop offset=".38" stop-color="#eadfce"/><stop offset=".78" stop-color="#bda78c"/><stop offset="1" stop-color="#806b57"/></radialGradient>
<radialGradient id="coffee" cx=".42" cy=".36"><stop stop-color="#e8b27b"/><stop offset=".32" stop-color="#b86d38"/><stop offset=".72" stop-color="#66351f"/><stop offset="1" stop-color="#27130e"/></radialGradient>
<linearGradient id="splash" x1="0" x2="1"><stop stop-color="#5d2b16"/><stop offset=".5" stop-color="#d27b37"/><stop offset="1" stop-color="#4a2112"/></linearGradient>
<filter id="shadow"><feGaussianBlur stdDeviation="20"/></filter><filter id="glow"><feGaussianBlur stdDeviation="5"/></filter>
<style>@keyframes steam{0%,100%{transform:translateY(8px) scale(.98);opacity:.35}50%{transform:translateY(-18px) translateX(9px) scale(1.05);opacity:.8}}@keyframes beans{0%,100%{transform:translate(0) rotate(0)}50%{transform:translate(8px,-12px) rotate(8deg)}}.steam{transform-box:fill-box;transform-origin:center;animation:steam 3.2s ease-in-out infinite}.beans{transform-box:fill-box;transform-origin:center;animation:beans 4.6s ease-in-out infinite}@media(prefers-reduced-motion:reduce){.steam,.beans{animation:none}}</style>
</defs><ellipse cx="375" cy="650" rx="280" ry="48" fill="#000" opacity=".48" filter="url(#shadow)"/>
<g transform="rotate(-8 380 455)"><ellipse cx="375" cy="565" rx="286" ry="112" fill="url(#porc)"/><ellipse cx="375" cy="548" rx="236" ry="80" fill="#f7efe4" opacity=".72"/>
<path d="M158 415c5 183 70 228 218 228s213-45 218-228z" fill="url(#porc)"/><ellipse cx="376" cy="414" rx="222" ry="124" fill="#f8f0e5"/><ellipse cx="376" cy="410" rx="199" ry="105" fill="url(#coffee)"/>
<ellipse cx="376" cy="407" rx="183" ry="91" fill="none" stroke="#f3c898" stroke-width="7" opacity=".45"/>
<path d="M270 418c50-86 160-88 214-3-52-46-160-47-214 3zm35 18c37-54 105-55 142-2-39-27-103-27-142 2zm39 15c20-27 48-27 68-1-20-12-48-12-68 1z" fill="#fff0d5" opacity=".98"/>
<path d="M575 450c118-13 128 150 25 164-61 8-82-52-42-82 31-23 70-3 64 34" fill="none" stroke="#d6c3aa" stroke-width="39" stroke-linecap="round"/></g>
<g class="steam" fill="none" stroke="#f1dfc8" stroke-linecap="round"><path d="M280 286c-65-80 58-111 4-190" stroke-width="15" opacity=".66"/><path d="M376 276c54-78-43-116 19-196" stroke-width="12" opacity=".78"/><path d="M464 296c58-58-7-98 43-158" stroke-width="9" opacity=".5"/></g>
<path d="M90 430c85-80 125 40 215 16 70-19 99-97 175-72" fill="none" stroke="url(#splash)" stroke-width="17" stroke-linecap="round" opacity=".9"/>
<g class="beans" fill="#3a1b10"><ellipse cx="112" cy="350" rx="24" ry="37" transform="rotate(-34 112 350)"/><ellipse cx="605" cy="310" rx="22" ry="34" transform="rotate(31 605 310)"/><ellipse cx="610" cy="650" rx="26" ry="38" transform="rotate(58 610 650)"/><ellipse cx="180" cy="620" rx="19" ry="29" transform="rotate(18 180 620)"/></g></svg>