<svg xmlns="http://www.w3.org/2000/svg" viewBox="0 0 760 760"><defs>
<radialGradient id="cup" cx=".32" cy=".22"><stop stop-color="#51453f"/><stop offset=".45" stop-color="#27201d"/><stop offset=".82" stop-color="#100d0c"/><stop offset="1" stop-color="#050404"/></radialGradient>
<radialGradient id="brew" cx=".42" cy=".34"><stop stop-color="#e29a55"/><stop offset=".23" stop-color="#9b5128"/><stop offset=".65" stop-color="#4a2416"/><stop offset="1" stop-color="#140a08"/></radialGradient>
<linearGradient id="splash" x1="0" x2="1"><stop stop-color="#3a180e"/><stop offset=".5" stop-color="#d87a32"/><stop offset="1" stop-color="#3a180e"/></linearGradient>
<filter id="shadow"><feGaussianBlur stdDeviation="22"/></filter>
<style>@keyframes steam{0%,100%{transform:translateY(7px) scale(.97);opacity:.34}50%{transform:translateY(-20px) translateX(-10px) scale(1.06);opacity:.76}}@keyframes beans{0%,100%{transform:translate(0) rotate(0)}50%{transform:translate(-9px,-13px) rotate(-9deg)}}.steam{transform-box:fill-box;transform-origin:center;animation:steam 3.7s ease-in-out infinite}.beans{transform-box:fill-box;transform-origin:center;animation:beans 5s ease-in-out infinite}@media(prefers-reduced-motion:reduce){.steam,.beans{animation:none}}</style>
</defs><ellipse cx="382" cy="650" rx="285" ry="50" fill="#000" opacity=".55" filter="url(#shadow)"/>
<g transform="rotate(7 385 470)"><ellipse cx="380" cy="575" rx="290" ry="112" fill="#0d0b0a"/><ellipse cx="380" cy="553" rx="244" ry="82" fill="#29211d" opacity=".8"/>
<path d="M160 420c7 184 72 225 220 225s213-41 220-225z" fill="url(#cup)"/><ellipse cx="380" cy="416" rx="220" ry="122" fill="#211713"/><ellipse cx="380" cy="412" rx="199" ry="104" fill="url(#brew)"/>
<ellipse cx="380" cy="408" rx="180" ry="88" fill="none" stroke="#e1a063" stroke-width="10" opacity=".55"/><ellipse cx="380" cy="405" rx="155" ry="72" fill="none" stroke="#f0bc7c" stroke-width="3" opacity=".38"/>
<path d="M580 462c121-6 128 150 27 162-63 7-86-52-47-83 32-25 73-6 68 33" fill="none" stroke="#171210" stroke-width="41" stroke-linecap="round"/></g>
<g class="steam" fill="none" stroke="#ddc5ad" stroke-linecap="round"><path d="M286 287c-66-81 57-113 2-194" stroke-width="15" opacity=".64"/><path d="M382 278c56-81-43-119 20-200" stroke-width="12" opacity=".75"/><path d="M470 298c61-61-7-101 45-162" stroke-width="9" opacity=".48"/></g>
<path d="M175 445c75-67 123 26 203 6 73-18 113-98 194-58 38 19 50 51 102 48" fill="none" stroke="url(#splash)" stroke-width="16" stroke-linecap="round" opacity=".92"/>
<g class="beans" fill="#32170e"><ellipse cx="116" cy="358" rx="25" ry="38" transform="rotate(-35 116 358)"/><ellipse cx="620" cy="306" rx="22" ry="34" transform="rotate(30 620 306)"/><ellipse cx="610" cy="654" rx="26" ry="39" transform="rotate(56 610 654)"/><ellipse cx="190" cy="630" rx="20" ry="30" transform="rotate(17 190 630)"/></g></svg>